<?xml version="1.0" standalone="no"?>
<!DOCTYPE svg PUBLIC "-//W3C//DTD SVG 20010904//EN"
 "http://www.w3.org/TR/2001/REC-SVG-20010904/DTD/svg10.dtd">
<svg version="1.0" xmlns="http://www.w3.org/2000/svg"
 width="300.000000pt" height="300.000000pt" viewBox="0 0 300.000000 300.000000"
 preserveAspectRatio="xMidYMid meet">
<metadata>
Created by potrace 1.11, written by Peter Selinger 2001-2013
</metadata>
<g transform="translate(0.000000,300.000000) scale(0.100000,-0.100000)"
fill="#000000" stroke="none">
<path d="M1395 2808 c-189 -19 -405 -83 -545 -161 -234 -130 -429 -326 -549
-549 -117 -215 -172 -486 -146 -711 16 -137 35 -218 74 -326 126 -344 414
-635 769 -775 371 -148 796 -125 1152 60 312 162 550 438 655 758 81 251 81
541 0 792 -81 245 -248 476 -464 640 -104 79 -313 184 -435 218 -161 46 -372
68 -511 54z m390 -63 c263 -59 493 -182 670 -360 495 -494 495 -1276 0 -1770
-179 -180 -412 -304 -675 -361 -101 -22 -333 -30 -443 -15 -570 76 -1008 475
-1124 1024 -24 114 -24 362 0 474 116 542 539 934 1102 1023 87 13 386 4 470
-15z"/>
<path d="M1403 2669 c-86 -10 -207 -49 -271 -86 -66 -39 -162 -133 -199 -194
-102 -170 -79 -408 56 -608 69 -101 160 -182 444 -394 149 -112 287 -220 305
-241 58 -67 85 -132 90 -221 3 -70 1 -86 -20 -125 -32 -59 -114 -125 -180
-145 -96 -28 -278 -15 -413 30 -87 29 -189 84 -242 130 -28 25 -54 45 -57 45
-3 0 -6 -90 -6 -200 0 -180 2 -200 17 -209 23 -11 222 -56 328 -72 127 -20
426 -18 505 4 176 47 311 151 381 291 98 198 87 404 -32 602 -56 94 -132 160
-426 377 -155 114 -304 230 -331 258 -129 132 -146 307 -39 406 64 59 128 78
262 77 176 -1 311 -45 421 -136 l49 -40 3 183 c1 101 0 189 -2 195 -6 15 -154
50 -266 63 -135 15 -299 20 -377 10z"/>
</g>
</svg>
